HIERARCHY
ROOT mixamorig:Hips
{
	OFFSET 0.000000 201.639420 0.000000
	CHANNELS 6 Xposition Yposition Zposition Xrotation Yrotation Zrotation
	JOINT mixamorig:Spine
	{
		OFFSET 0.006200 19.524994 -2.481800
		CHANNELS 3 Xrotation Yrotation Zrotation
		JOINT mixamorig:Spine1
		{
			OFFSET -0.000900 22.835007 -2.825400
			CHANNELS 3 Xrotation Yrotation Zrotation
			JOINT mixamorig:Spine2
			{
				OFFSET -0.020600 26.552490 -3.193300
				CHANNELS 3 Xrotation Yrotation Zrotation
				JOINT mixamorig:Neck
				{
					OFFSET -0.060000 30.701813 1.352200
					CHANNELS 3 Xrotation Yrotation Zrotation
					JOINT mixamorig:Head
					{
						OFFSET -0.087200 22.547607 3.670900
						CHANNELS 3 Xrotation Yrotation Zrotation
						JOINT mixamorig:HeadTop_End
						{
							OFFSET -0.830600 40.355194 7.893500
							CHANNELS 3 Xrotation Yrotation Zrotation
							End Site
							{
								OFFSET 0.000000 30.592346 0.000000
							}
						}
						JOINT mixamorig:RightEye
						{
							OFFSET -6.302100 18.118591 16.197100
							CHANNELS 3 Xrotation Yrotation Zrotation
							End Site
							{
								OFFSET 0.000000 30.592346 0.000000
							}
						}
						JOINT mixamorig:LeftEye
						{
							OFFSET 6.741500 18.382690 16.401899
							CHANNELS 3 Xrotation Yrotation Zrotation
							End Site
							{
								OFFSET 0.000000 30.592346 0.000000
							}
						}
					}
				}
				JOINT mixamorig:LeftShoulder
				{
					OFFSET 11.924900 18.230499 1.425400
					CHANNELS 3 Xrotation Yrotation Zrotation
					JOINT mixamorig:LeftArm
					{
						OFFSET 25.435989 -0.697632 -5.229300
						CHANNELS 3 Xrotation Yrotation Zrotation
						JOINT mixamorig:LeftForeArm
						{
							OFFSET 54.684776 0.000000 0.000000
							CHANNELS 3 Xrotation Yrotation Zrotation
							JOINT mixamorig:LeftHand
							{
								OFFSET 55.098175 0.000000 0.000000
								CHANNELS 3 Xrotation Yrotation Zrotation
								JOINT mixamorig:LeftHandMiddle1
								{
									OFFSET 23.369751 0.000000 0.000000
									CHANNELS 3 Xrotation Yrotation Zrotation
									JOINT mixamorig:LeftHandMiddle2
									{
										OFFSET 6.378677 0.000000 0.000000
										CHANNELS 3 Xrotation Yrotation Zrotation
										JOINT mixamorig:LeftHandMiddle3
										{
											OFFSET 6.148331 0.000000 0.000000
											CHANNELS 3 Xrotation Yrotation Zrotation
											JOINT mixamorig:LeftHandMiddle4
											{
												OFFSET 6.582504 0.000000 0.000000
												CHANNELS 3 Xrotation Yrotation Zrotation
												End Site
												{
													OFFSET -1.168900 6.395691 1.028606
												}
											}
										}
									}
								}
								JOINT mixamorig:LeftHandThumb1
								{
									OFFSET 7.235672 -3.848206 5.434273
									CHANNELS 3 Xrotation Yrotation Zrotation
									JOINT mixamorig:LeftHandThumb2
									{
										OFFSET 6.568451 -3.792297 3.792300
										CHANNELS 3 Xrotation Yrotation Zrotation
										JOINT mixamorig:LeftHandThumb3
										{
											OFFSET 6.063080 -3.500519 3.500518
											CHANNELS 3 Xrotation Yrotation Zrotation
											JOINT mixamorig:LeftHandThumb4
											{
												OFFSET 4.793182 -2.767334 2.767349
												CHANNELS 3 Xrotation Yrotation Zrotation
												End Site
												{
													OFFSET 0.101639 6.054260 1.275483
												}
											}
										}
									}
								}
								JOINT mixamorig:LeftHandIndex1
								{
									OFFSET 23.101074 -0.309540 4.992809
									CHANNELS 3 Xrotation Yrotation Zrotation
									JOINT mixamorig:LeftHandIndex2
									{
										OFFSET 6.226883 0.000000 0.000000
										CHANNELS 3 Xrotation Yrotation Zrotation
										JOINT mixamorig:LeftHandIndex3
										{
											OFFSET 6.094330 0.000000 0.000000
											CHANNELS 3 Xrotation Yrotation Zrotation
											JOINT mixamorig:LeftHandIndex4
											{
												OFFSET 5.482605 0.000000 0.000000
												CHANNELS 3 Xrotation Yrotation Zrotation
												End Site
												{
													OFFSET -1.427902 5.233032 0.797164
												}
											}
										}
									}
								}
								JOINT mixamorig:LeftHandRing1
								{
									OFFSET 22.299240 0.021149 -3.964172
									CHANNELS 3 Xrotation Yrotation Zrotation
									JOINT mixamorig:LeftHandRing2
									{
										OFFSET 6.321869 0.000000 0.000000
										CHANNELS 3 Xrotation Yrotation Zrotation
										JOINT mixamorig:LeftHandRing3
										{
											OFFSET 5.899796 0.000000 0.000000
											CHANNELS 3 Xrotation Yrotation Zrotation
											JOINT mixamorig:LeftHandRing4
											{
												OFFSET 6.517899 0.000000 0.000000
												CHANNELS 3 Xrotation Yrotation Zrotation
												End Site
												{
													OFFSET -1.637299 6.232208 0.980890
												}
											}
										}
									}
								}
								JOINT mixamorig:LeftHandPinky1
								{
									OFFSET 20.463791 -0.302338 -8.562233
									CHANNELS 3 Xrotation Yrotation Zrotation
									JOINT mixamorig:LeftHandPinky2
									{
										OFFSET 6.908646 0.000000 0.000000
										CHANNELS 3 Xrotation Yrotation Zrotation
										JOINT mixamorig:LeftHandPinky3
										{
											OFFSET 4.622849 0.000000 0.000000
											CHANNELS 3 Xrotation Yrotation Zrotation
											JOINT mixamorig:LeftHandPinky4
											{
												OFFSET 5.216080 0.000000 0.000000
												CHANNELS 3 Xrotation Yrotation Zrotation
												End Site
												{
													OFFSET -0.606308 5.116241 0.814926
												}
											}
										}
									}
								}
							}
						}
					}
				}
				JOINT mixamorig:RightShoulder
				{
					OFFSET -12.001300 18.284088 1.348900
					CHANNELS 3 Xrotation Yrotation Zrotation
					JOINT mixamorig:RightArm
					{
						OFFSET -25.308500 -0.751312 -5.164599
						CHANNELS 3 Xrotation Yrotation Zrotation
						JOINT mixamorig:RightForeArm
						{
							OFFSET -54.684429 0.000000 0.000000
							CHANNELS 3 Xrotation Yrotation Zrotation
							JOINT mixamorig:RightHand
							{
								OFFSET -55.150291 0.000000 0.000000
								CHANNELS 3 Xrotation Yrotation Zrotation
								JOINT mixamorig:RightHandMiddle1
								{
									OFFSET -23.317566 0.000000 0.000000
									CHANNELS 3 Xrotation Yrotation Zrotation
									JOINT mixamorig:RightHandMiddle2
									{
										OFFSET -6.378403 0.000000 0.000000
										CHANNELS 3 Xrotation Yrotation Zrotation
										JOINT mixamorig:RightHandMiddle3
										{
											OFFSET -6.148193 0.000000 0.000000
											CHANNELS 3 Xrotation Yrotation Zrotation
											JOINT mixamorig:RightHandMiddle4
											{
												OFFSET -6.583389 0.000000 0.000000
												CHANNELS 3 Xrotation Yrotation Zrotation
												End Site
												{
													OFFSET 1.171692 6.395905 1.029786
												}
											}
										}
									}
								}
								JOINT mixamorig:RightHandThumb1
								{
									OFFSET -7.190521 -3.860474 5.435846
									CHANNELS 3 Xrotation Yrotation Zrotation
									JOINT mixamorig:RightHandThumb2
									{
										OFFSET -6.567429 -3.791718 3.791708
										CHANNELS 3 Xrotation Yrotation Zrotation
										JOINT mixamorig:RightHandThumb3
										{
											OFFSET -6.062469 -3.500153 3.500166
											CHANNELS 3 Xrotation Yrotation Zrotation
											JOINT mixamorig:RightHandThumb4
											{
												OFFSET -4.792618 -2.767029 2.767022
												CHANNELS 3 Xrotation Yrotation Zrotation
												End Site
												{
													OFFSET -0.100327 6.053253 1.276754
												}
											}
										}
									}
								}
								JOINT mixamorig:RightHandIndex1
								{
									OFFSET -23.048981 -0.310791 4.992554
									CHANNELS 3 Xrotation Yrotation Zrotation
									JOINT mixamorig:RightHandIndex2
									{
										OFFSET -6.227539 0.000000 0.000000
										CHANNELS 3 Xrotation Yrotation Zrotation
										JOINT mixamorig:RightHandIndex3
										{
											OFFSET -6.095047 0.000000 0.000000
											CHANNELS 3 Xrotation Yrotation Zrotation
											JOINT mixamorig:RightHandIndex4
											{
												OFFSET -5.484772 0.000000 0.000000
												CHANNELS 3 Xrotation Yrotation Zrotation
												End Site
												{
													OFFSET 1.420593 5.237305 0.797056
												}
											}
										}
									}
								}
								JOINT mixamorig:RightHandRing1
								{
									OFFSET -22.246323 0.020569 -3.963762
									CHANNELS 3 Xrotation Yrotation Zrotation
									JOINT mixamorig:RightHandRing2
									{
										OFFSET -6.322128 0.000000 0.000000
										CHANNELS 3 Xrotation Yrotation Zrotation
										JOINT mixamorig:RightHandRing3
										{
											OFFSET -5.900024 0.000000 0.000000
											CHANNELS 3 Xrotation Yrotation Zrotation
											JOINT mixamorig:RightHandRing4
											{
												OFFSET -6.518356 0.000000 0.000000
												CHANNELS 3 Xrotation Yrotation Zrotation
												End Site
												{
													OFFSET 1.636398 6.232697 0.982186
												}
											}
										}
									}
								}
								JOINT mixamorig:RightHandPinky1
								{
									OFFSET -20.411011 -0.303314 -8.561701
									CHANNELS 3 Xrotation Yrotation Zrotation
									JOINT mixamorig:RightHandPinky2
									{
										OFFSET -6.907349 0.000000 0.000000
										CHANNELS 3 Xrotation Yrotation Zrotation
										JOINT mixamorig:RightHandPinky3
										{
											OFFSET -4.623840 0.000000 0.000000
											CHANNELS 3 Xrotation Yrotation Zrotation
											JOINT mixamorig:RightHandPinky4
											{
												OFFSET -5.218353 0.000000 0.000000
												CHANNELS 3 Xrotation Yrotation Zrotation
												End Site
												{
													OFFSET 0.602097 5.118835 0.816273
												}
											}
										}
									}
								}
							}
						}
					}
				}
			}
		}
	}
	JOINT mixamorig:LeftUpLeg
	{
		OFFSET 18.168400 -13.561905 -0.039000
		CHANNELS 3 Xrotation Yrotation Zrotation
		JOINT mixamorig:LeftLeg
		{
			OFFSET 0.577358 -80.825211 -3.695000
			CHANNELS 3 Xrotation Yrotation Zrotation
			JOINT mixamorig:LeftFoot
			{
				OFFSET -0.577356 -83.370262 -6.520700
				CHANNELS 3 Xrotation Yrotation Zrotation
				JOINT mixamorig:LeftToeBase
				{
					OFFSET 0.750401 -20.798306 25.135401
					CHANNELS 3 Xrotation Yrotation Zrotation
					JOINT mixamorig:LeftToe_End
					{
						OFFSET -0.000500 0.001200 19.917799
						CHANNELS 3 Xrotation Yrotation Zrotation
						End Site
						{
							OFFSET 0.000000 19.917805 0.000000
						}
					}
				}
			}
		}
	}
	JOINT mixamorig:RightUpLeg
	{
		OFFSET -18.162500 -13.585098 -0.041000
		CHANNELS 3 Xrotation Yrotation Zrotation
		JOINT mixamorig:RightLeg
		{
			OFFSET -0.595024 -80.945297 -3.631900
			CHANNELS 3 Xrotation Yrotation Zrotation
			JOINT mixamorig:RightFoot
			{
				OFFSET 0.595024 -83.218193 -6.561200
				CHANNELS 3 Xrotation Yrotation Zrotation
				JOINT mixamorig:RightToeBase
				{
					OFFSET -0.753601 -20.807106 25.115000
					CHANNELS 3 Xrotation Yrotation Zrotation
					JOINT mixamorig:RightToe_End
					{
						OFFSET 0.000299 0.001700 19.918200
						CHANNELS 3 Xrotation Yrotation Zrotation
						End Site
						{
							OFFSET 0.000000 19.918203 0.000000
						}
					}
				}
			}
		}
	}
}
MOTION
Frames: 4
Frame Time: 0.033333
-18.976261 200.126770 138.581177 27.135143 -4.301789 -1.865683 15.074876 4.969644 1.366482 1.383533 0.929314 -0.477331 1.391050 0.912821 -0.494351 -6.297411 -1.511273 3.364984 -15.818652 -2.579797 -1.489180 -0.000001 -0.000000 0.000000 -0.000001 -0.000000 0.000000 -0.000001 -0.000000 0.000000 -0.899638 21.154083 -2.302724 -35.705039 -47.634600 -35.095247 -0.000216 -94.256829 -0.000185 42.551498 21.562402 56.402398 -1.278166 2.172275 -34.188741 0.246495 1.683095 -16.662789 0.110550 1.133878 -11.136321 0.000001 0.000000 0.000001 -9.234505 -8.803129 2.476447 6.023488 12.866264 1.310544 -6.194068 3.088403 12.936127 0.000002 0.000000 0.000001 1.426655 6.145161 -35.140227 0.184765 1.461153 -14.413139 0.008389 0.313749 -3.063303 0.000001 0.000001 -0.000001 1.536226 6.245100 -39.245249 0.076899 0.947112 -9.283585 0.113467 1.148621 -11.283011 -0.000001 -0.000000 -0.000000 0.208684 4.746040 -41.570345 0.002078 0.156264 -1.525020 0.000003 -0.000005 -0.000005 -0.000001 -0.000000 -0.000000 -0.049563 -4.006617 -0.582096 -23.636559 26.079776 24.398535 -0.000010 112.771081 0.000003 50.484534 -19.371907 -66.541206 7.131463 -15.023846 31.556782 0.881484 -2.728423 35.803152 0.029736 -0.554483 6.818027 0.000000 -0.000002 -0.000000 -17.559520 9.441858 -2.734371 14.136323 -31.690930 0.580579 -0.891511 -16.632533 -15.446683 -0.000001 0.000001 -0.000003 3.979033 -10.773608 27.974727 0.859001 -2.696992 35.328044 0.060836 -0.751093 9.260972 -0.000000 -0.000001 0.000000 6.569703 -13.495930 33.366430 0.648549 -2.372642 30.572234 -0.001651 0.000011 0.000005 -0.000001 0.000003 -0.000001 11.284374 -21.701994 31.729507 0.605307 -2.297910 29.510799 0.000502 -0.068774 0.844395 -0.000001 -0.000001 0.000001 -56.377894 0.530777 9.849382 70.078806 7.200157 -0.619939 -14.292982 0.825410 -5.912061 -3.675469 -0.000003 -0.000001 0.000000 -0.000001 0.000000 -26.796418 2.347997 7.870414 29.355050 -2.626241 -0.665041 -29.188578 0.642672 -2.203585 -2.733693 -0.000001 0.000000 -0.000000 0.000000 -0.000000 
-18.455994 201.437515 142.926361 27.519493 -5.868225 -1.891913 15.205369 5.275410 1.210549 1.401473 0.978647 -0.397669 1.408675 0.964374 -0.415663 -7.265314 -1.500252 3.916362 -15.359765 -1.169087 -3.129386 -0.000001 0.000000 0.000000 -0.000001 0.000000 0.000000 -0.000001 0.000000 0.000000 -0.920438 21.119143 -2.090805 -35.097719 -46.166594 -34.692436 -0.000741 -94.899379 -0.000835 42.842973 22.336815 56.832269 -1.295234 2.141269 -34.146441 0.245257 1.678953 -16.620628 0.111897 1.140714 -11.204224 0.000001 -0.000001 -0.000001 -9.213948 -8.791789 2.478266 6.028871 12.890432 1.306344 -6.193631 3.089739 12.936062 0.000000 -0.000000 0.000003 1.410104 6.124430 -34.962724 0.184843 1.461414 -14.415746 0.008486 0.315491 -3.080107 0.000001 0.000000 -0.000000 1.551419 6.264971 -39.058836 0.077299 0.949588 -9.307958 0.115143 1.156998 -11.366289 -0.000001 -0.000001 -0.000001 0.206362 4.740212 -41.509279 0.001934 0.150518 -1.469103 -0.000002 -0.000004 -0.000001 -0.000002 -0.000001 0.000000 -0.074911 -4.551107 -0.444518 -24.598334 28.831851 24.776832 0.000083 110.676508 -0.000081 50.663184 -19.317901 -67.123172 7.097606 -14.954819 31.593050 0.881547 -2.728513 35.804490 0.026634 -0.554538 6.814004 0.000001 -0.000001 -0.000000 -17.553576 9.423834 -2.716400 14.085980 -31.596165 0.559951 -0.880798 -16.655913 -15.449558 0.000003 -0.000003 0.000001 3.960692 -10.725593 28.028704 0.858385 -2.696114 35.315032 0.061160 -0.753016 9.285307 -0.000001 -0.000001 0.000000 6.523675 -13.430023 33.355902 0.648975 -2.373317 30.582367 -0.003269 -0.000009 0.000003 -0.000001 -0.000002 0.000002 11.136702 -21.597973 31.515019 0.604695 -2.296849 29.495998 0.000540 -0.071127 0.872996 -0.000001 -0.000000 0.000001 -59.456059 1.281757 11.195670 62.459218 8.779757 -1.094232 -14.706097 0.878581 -4.760607 -3.808773 -0.000007 -0.000000 0.000001 0.000000 -0.000000 -23.191441 2.432530 7.685115 23.794911 -0.829276 -0.588573 -25.966708 0.618698 -2.350334 -4.074015 -0.000001 0.000000 -0.000000 -0.000000 0.000000 
-17.726017 202.034973 147.105011 27.778180 -7.876071 -1.915253 15.301504 5.344552 0.986654 1.428672 0.988985 -0.334525 1.435220 0.976778 -0.352590 -7.886364 -1.386978 4.491428 -14.952510 0.809198 -5.073645 0.000000 0.000000 -0.000000 0.000000 0.000000 -0.000000 0.000000 0.000000 -0.000000 -0.928282 21.382944 -2.034924 -34.595216 -44.214980 -34.067645 0.000515 -95.982695 0.000364 43.148200 23.094562 56.704452 -1.302246 2.112280 -34.007256 0.243879 1.674311 -16.573299 0.112541 1.143988 -11.236833 -0.000000 -0.000002 0.000001 -9.151681 -8.758042 2.485178 6.031542 12.902480 1.304270 -6.189766 3.101213 12.935291 0.000000 0.000000 -0.000002 1.396977 6.110889 -34.621211 0.185009 1.462111 -14.422592 0.008660 0.318796 -3.112378 -0.000001 -0.000001 0.000000 1.564086 6.282816 -38.787610 0.076793 0.946439 -9.277158 0.116030 1.161408 -11.410018 -0.000000 -0.000001 0.000001 0.202769 4.731579 -41.422953 0.001682 0.140644 -1.372546 0.000000 -0.000003 -0.000004 -0.000002 0.000000 -0.000000 -0.052590 -4.443587 -0.324041 -25.808112 31.521613 25.002100 -0.000059 108.377938 0.000056 50.846817 -19.193897 -67.804961 6.964521 -14.739080 31.595840 0.881759 -2.728796 35.808687 0.022584 -0.555875 6.824495 0.000001 -0.000001 -0.000000 -17.580390 9.460746 -2.702339 14.056459 -31.539631 0.547453 -0.914655 -16.574815 -15.447666 0.000000 0.000003 -0.000001 3.870749 -10.577794 27.955302 0.857379 -2.694688 35.293599 0.061506 -0.755179 9.311527 -0.000000 -0.000000 0.000000 6.366693 -13.227514 33.248295 0.648580 -2.372697 30.573030 -0.005566 0.000015 0.000006 0.000000 -0.000002 -0.000003 10.762724 -21.243801 31.097564 0.602922 -2.293713 29.451649 0.000617 -0.075844 0.930839 -0.000002 0.000000 0.000001 -61.618285 1.816193 12.369139 54.618868 8.790808 -1.173029 -15.030371 2.388073 -3.455600 -3.608364 -0.000002 0.000002 0.000000 -0.000000 0.000000 -20.540238 2.450855 7.597778 20.383467 1.173887 -0.623249 -23.541878 0.258969 -1.199811 -3.826072 0.000000 0.000000 0.000000 -0.000000 0.000000 
-16.852869 201.808838 151.082092 27.634932 -9.878740 -1.801162 15.583141 5.063544 0.659041 1.461485 0.938215 -0.266458 1.466614 0.928446 -0.283771 -7.814350 -1.140548 4.691870 -14.856744 2.830386 -6.960188 -0.000001 -0.000000 -0.000000 -0.000001 -0.000000 -0.000000 -0.000001 -0.000000 -0.000000 -0.901824 21.633670 -2.132636 -34.226717 -41.509839 -33.319346 0.000027 -97.656802 0.000050 43.480926 23.492649 55.561885 -1.304460 2.070698 -33.721668 0.242462 1.669531 -16.524791 0.112197 1.142273 -11.219546 -0.000000 0.000001 0.000001 -9.053646 -8.705226 2.497060 6.034466 12.915695 1.301988 -6.179667 3.131002 12.933336 0.000000 0.000001 0.000001 1.392105 6.111045 -34.181323 0.185389 1.463538 -14.437066 0.008867 0.322555 -3.149246 0.000000 -0.000001 0.000000 1.579278 6.305145 -38.440878 0.075789 0.940300 -9.216251 0.115789 1.160246 -11.398519 0.000002 -0.000000 0.000001 0.196875 4.716749 -41.269676 0.001461 0.130970 -1.278099 -0.000002 -0.000004 -0.000004 -0.000001 0.000001 0.000000 -0.018541 -4.129190 -0.240063 -27.284328 34.465360 25.310039 0.000006 105.941323 -0.000011 50.989671 -18.968221 -68.499755 6.817850 -14.499541 31.604115 0.881943 -2.729041 35.812574 0.017893 -0.557875 6.841879 0.000001 0.000000 0.000001 -17.618384 9.516864 -2.689421 14.011619 -31.454363 0.528819 -0.958330 -16.470392 -15.445078 0.000002 0.000003 0.000003 3.755048 -10.391510 27.839779 0.856229 -2.693057 35.269239 0.061726 -0.756506 9.328328 0.000001 -0.000000 0.000000 6.193694 -12.992549 33.161982 0.647481 -2.370815 30.546474 -0.008489 -0.000008 0.000008 -0.000001 0.000001 0.000001 10.397001 -20.882801 30.694214 0.600667 -2.289699 29.394972 0.000710 -0.081555 1.001131 0.000000 -0.000000 -0.000000 -62.748224 1.940108 12.846636 47.853279 8.785631 -0.503263 -15.651257 2.291003 -3.499816 -2.665893 -0.000005 0.000001 -0.000000 0.000001 0.000000 -18.694796 2.321766 7.267950 19.691007 3.025962 -0.743016 -22.923249 0.078566 -0.580910 -4.215075 0.000001 -0.000000 0.000000 -0.000000 0.000000 
